# 3ds Max Wavefront OBJ Exporter v0.97b - (c)2007 guruware
# 创建的文件:21.12.2014 16:28:47

mtllib skybox.mtl

#
# object Box01
#

v  -0.5000 0.0000 -0.5000
v  -0.5000 0.0000 0.5000
v  0.5000 0.0000 -0.5000
v  0.5000 0.0000 0.5000
v  0.5000 1.0000 0.5000
v  -0.5000 1.0000 0.5000
v  0.5000 1.0000 -0.5000
v  -0.5000 1.0000 -0.5000
# 8 vertices

vn 0.0000 1.0000 -0.0000
vn 0.0000 -1.0000 -0.0000
vn 0.0000 0.0000 -1.0000
vn -1.0000 0.0000 -0.0000
vn 0.0000 0.0000 1.0000
vn 1.0000 0.0000 -0.0000
# 6 vertex normals

vt 0.3318 0.4997 0.0000
vt 0.3318 0.0000 0.0000
vt 0.0002 0.4997 0.0000
vt 0.0002 0.0000 0.0000
vt 0.3320 0.5000 0.0000
vt 0.0000 0.5000 0.0000
vt 0.3320 1.0000 0.0000
vt 0.0000 1.0000 0.0000
vt 0.9950 0.5004 0.0000
vt 0.6673 0.5004 0.0000
vt 0.9950 1.0043 0.0000
vt 0.6673 1.0043 0.0000
vt 0.6592 0.5007 0.0000
vt 0.3338 0.5007 0.0000
vt 0.6592 1.0027 0.0000
vt 0.3338 1.0027 0.0000
vt 1.0001 0.0001 0.0000
vt 0.6642 0.0001 0.0000
vt 1.0001 0.4999 0.0000
vt 0.6642 0.4999 0.0000
vt 0.6641 -0.0001 0.0000
vt 0.3353 -0.0001 0.0000
vt 0.6641 0.4997 0.0000
vt 0.3353 0.4997 0.0000
# 24 texture coords

g Box01
usemtl 01___Default
s 2
f 1/1/1 2/2/1 3/3/1 
f 4/4/1 3/3/1 2/2/1 
s 4
f 5/5/2 6/6/2 7/7/2 
f 8/8/2 7/7/2 6/6/2 
s 8
f 4/9/3 2/10/3 5/11/3 
f 6/12/3 5/11/3 2/10/3 
s 16
f 3/13/4 4/14/4 7/15/4 
f 5/16/4 7/15/4 4/14/4 
s 32
f 1/17/5 3/18/5 8/19/5 
f 7/20/5 8/19/5 3/18/5 
s 64
f 2/21/6 1/22/6 6/23/6 
f 8/24/6 6/23/6 1/22/6 
# 12 faces

